<svg xmlns="http://www.w3.org/2000/svg" width="637" height="626" viewBox="0 0 637 626">
  <g id="Group_21" data-name="Group 21" transform="translate(-951 -187)">
    <rect id="Rectangle_4" data-name="Rectangle 4" width="161" height="157" rx="27" transform="translate(1268 187)" fill="#0a0a0a"/>
    <path id="Path_4" data-name="Path 4" d="M27,0H134a27,27,0,0,1,27,27V130a27,27,0,0,1-27,27H27A27,27,0,0,1,0,130V27A27,27,0,0,1,27,0Z" transform="translate(1268 500)" fill="#0a0a0a"/>
    <rect id="Rectangle_6" data-name="Rectangle 6" width="161" height="157" rx="27" transform="translate(1427 344)" opacity="0.353"/>
    <rect id="Rectangle_5" data-name="Rectangle 5" width="161" height="157" rx="27" transform="translate(1110 343)" fill="#fff"/>
    <rect id="Rectangle_8" data-name="Rectangle 8" width="161" height="157" rx="27" transform="translate(1110 656)" fill="#fff"/>
    <rect id="Rectangle_7" data-name="Rectangle 7" width="161" height="157" rx="27" transform="translate(951 500)" fill="#fff" opacity="0.35"/>
    <circle id="Ellipse_2" data-name="Ellipse 2" cx="78" cy="78" r="78" transform="translate(1112 500)" fill="#6e00ff"/>
    <circle id="Ellipse_3" data-name="Ellipse 3" cx="78" cy="78" r="78" transform="translate(1271 344)" fill="#6e00ff"/>
  </g>
</svg>
